<?xml version="1.0" encoding="UTF-8"?>
<!-- Adaptive-icon foreground for Android. Same fridge artwork as the
     master, with the Mistral backdrop and Zéphir frame removed so the
     drawable composes on top of @color/ic_launcher_background. The 16%
     inset declared in mipmap-anydpi-v26/ic_launcher.xml shrinks this
     further at render time, so we keep the fridge at the master's
     original 232/152 offset for visual continuity. -->
<svg xmlns="http://www.w3.org/2000/svg" viewBox="0 0 1024 1024" shape-rendering="geometricPrecision">
  <g transform="translate(232 152)">
    <!-- Drop shadow -->
    <rect x="8" y="16" width="560" height="720" rx="68" ry="68" fill="#2A1810" opacity="0.18"/>
    <!-- Cabinet — Pulpe orange. -->
    <rect x="0" y="0" width="560" height="720" rx="68" ry="68" fill="#FF8A1F"/>

    <!-- Door split. -->
    <line x1="32" y1="260" x2="528" y2="260" stroke="#D17A1E" stroke-width="8" stroke-linecap="round"/>

    <!-- Handles. -->
    <rect x="468" y="80" width="18" height="140" rx="9" ry="9" fill="#FFE0AA"/>
    <rect x="468" y="320" width="18" height="240" rx="9" ry="9" fill="#FFE0AA"/>

    <!-- V monogram. -->
    <path d="M 130 110 L 200 220 L 270 110"
          fill="none" stroke="#FFE0AA" stroke-width="34"
          stroke-linecap="round" stroke-linejoin="round"/>

    <!-- Solara leaf + Mistral berry. -->
    <g transform="translate(186 360)">
      <path d="M 100 0 Q 100 30 100 60" fill="none" stroke="#FFE0AA" stroke-width="6" stroke-linecap="round"/>
      <path d="M 100 20 C 130 0 175 0 180 35 C 165 60 125 60 100 40 Z" fill="#FFC065"/>
      <path d="M 110 28 Q 130 22 165 30" fill="none" stroke="#D17A1E" stroke-width="4" stroke-linecap="round"/>
      <circle cx="100" cy="100" r="44" fill="#67CEEA"/>
      <circle cx="86" cy="86" r="10" fill="#FFFFFF" opacity="0.55"/>
    </g>
  </g>
</svg>
